<?xml version="1.0" encoding="utf-8"?>
<!-- Generator: Adobe Illustrator 19.0.0, SVG Export Plug-In . SVG Version: 6.00 Build 0)  -->
<svg version="1.1" id="Layer_1" xmlns="http://www.w3.org/2000/svg" xmlns:xlink="http://www.w3.org/1999/xlink" x="0px" y="0px"
	 viewBox="-36 113.7 127 24.3" style="enable-background:new -36 113.7 127 24.3;" xml:space="preserve">
<style type="text/css">
	.st0{fill:#CF3B27;}
	.st1{enable-background:new    ;}
	.st2{fill:#FFFFFF;}
	.st3{fill:#F9F9FA;}
</style>
<rect id="XMLID_4_" x="55.8" y="113.7" class="st0" width="35" height="22.8"/>
<g class="st1">
	<path class="st2" d="M-27.7,126.5c-0.7-0.2-1.3-0.5-1.9-0.7s-1.1-0.5-1.5-0.9c-0.4-0.4-0.7-0.8-1-1.3c-0.2-0.5-0.3-1.1-0.3-1.8
		c0-1.4,0.5-2.4,1.6-3.3c1-0.8,2.5-1.2,4.4-1.2c0.7,0,1.3,0,1.9,0.1c0.6,0.1,1.1,0.2,1.5,0.4c0.4,0.2,0.8,0.5,1,0.8
		c0.2,0.3,0.4,0.7,0.4,1.1s-0.1,0.8-0.3,1.1c-0.2,0.3-0.4,0.5-0.7,0.8c-0.4-0.2-0.8-0.4-1.4-0.6c-0.6-0.2-1.2-0.3-1.9-0.3
		c-0.7,0-1.2,0.1-1.6,0.3s-0.5,0.5-0.5,0.8c0,0.2,0.1,0.4,0.3,0.6c0.2,0.2,0.5,0.3,0.9,0.4l1.3,0.4c1.5,0.5,2.7,1.1,3.5,1.8
		c0.8,0.7,1.2,1.8,1.2,3c0,1.4-0.5,2.5-1.6,3.3c-1.1,0.8-2.6,1.3-4.7,1.3c-0.7,0-1.4-0.1-2.1-0.2c-0.6-0.1-1.2-0.3-1.7-0.5
		c-0.5-0.2-0.8-0.5-1.1-0.9c-0.3-0.3-0.4-0.7-0.4-1.2c0-0.5,0.1-0.9,0.4-1.2c0.3-0.3,0.6-0.6,0.9-0.8c0.4,0.4,1,0.7,1.6,0.9
		s1.4,0.4,2.1,0.4c0.8,0,1.3-0.1,1.7-0.4c0.3-0.2,0.5-0.5,0.5-0.8s-0.1-0.6-0.4-0.7s-0.6-0.3-1.1-0.5L-27.7,126.5z"/>
	<path class="st2" d="M-14.8,128.3c0,0.4,0.1,0.7,0.4,0.9c0.3,0.2,0.6,0.3,1.1,0.3c0.2,0,0.5,0,0.7-0.1c0.3,0,0.5-0.1,0.7-0.2
		c0.1,0.2,0.3,0.4,0.4,0.6c0.1,0.2,0.2,0.5,0.2,0.8c0,0.6-0.2,1.1-0.7,1.5s-1.3,0.6-2.4,0.6c-1.4,0-2.5-0.3-3.3-1
		c-0.8-0.6-1.1-1.7-1.1-3.1v-10.3c0.2,0,0.4-0.1,0.8-0.2c0.3-0.1,0.7-0.1,1-0.1c0.7,0,1.3,0.1,1.6,0.4c0.4,0.2,0.6,0.8,0.6,1.6v1.5
		h3.1c0.1,0.2,0.2,0.4,0.3,0.7c0.1,0.3,0.1,0.6,0.1,0.9c0,0.6-0.1,1-0.4,1.2s-0.6,0.4-1,0.4h-2.2V128.3z"/>
	<path class="st2" d="M-4.5,120.3c0.9,0,1.7,0.1,2.4,0.3c0.7,0.2,1.3,0.4,1.8,0.8c0.5,0.4,0.9,0.8,1.2,1.4s0.4,1.2,0.4,2v5.4
		c0,0.4-0.1,0.8-0.3,1c-0.2,0.3-0.5,0.5-0.8,0.7c-1,0.6-2.5,0.9-4.4,0.9c-0.8,0-1.6-0.1-2.3-0.2c-0.7-0.2-1.3-0.4-1.8-0.7
		c-0.5-0.3-0.9-0.7-1.1-1.2c-0.3-0.5-0.4-1.1-0.4-1.7c0-1.1,0.3-2,1-2.5c0.7-0.6,1.7-1,3-1.1l3.1-0.3v-0.2c0-0.5-0.2-0.8-0.6-1
		c-0.4-0.2-1-0.3-1.8-0.3c-0.6,0-1.2,0.1-1.8,0.2c-0.6,0.1-1.1,0.3-1.6,0.5c-0.2-0.1-0.4-0.4-0.5-0.7s-0.2-0.6-0.2-0.9
		c0-0.4,0.1-0.7,0.3-1s0.5-0.5,0.9-0.6c0.5-0.2,1-0.3,1.6-0.4C-5.6,120.3-5,120.3-4.5,120.3z M-4.3,129.7c0.3,0,0.6,0,0.9-0.1
		c0.3-0.1,0.6-0.1,0.7-0.2v-1.9l-1.7,0.1c-0.4,0-0.8,0.1-1.1,0.3s-0.4,0.4-0.4,0.7s0.1,0.6,0.4,0.8S-4.9,129.7-4.3,129.7z"/>
	<path class="st2" d="M9.5,120.3c0.9,0,1.7,0.1,2.5,0.3c0.7,0.2,1.4,0.5,1.9,0.9c0.3,0.2,0.6,0.5,0.8,0.7c0.2,0.3,0.3,0.6,0.3,1.1
		v8.4c0,0.8-0.2,1.6-0.5,2.2c-0.3,0.6-0.8,1.1-1.3,1.5c-0.6,0.4-1.2,0.7-1.9,0.9c-0.7,0.2-1.5,0.3-2.4,0.3c-1.5,0-2.6-0.2-3.4-0.6
		c-0.8-0.4-1.2-1-1.2-1.9c0-0.4,0.1-0.7,0.2-1c0.2-0.3,0.3-0.5,0.5-0.6c0.5,0.3,1,0.5,1.6,0.6c0.6,0.2,1.2,0.3,1.8,0.3
		c0.9,0,1.6-0.1,2.1-0.4c0.5-0.3,0.8-0.8,0.8-1.4v-0.4c-0.7,0.3-1.5,0.4-2.4,0.4c-0.7,0-1.4-0.1-2.1-0.3s-1.2-0.6-1.7-1
		c-0.5-0.5-0.9-1-1.2-1.8c-0.3-0.7-0.4-1.6-0.4-2.6c0-1,0.2-1.8,0.5-2.5s0.7-1.3,1.3-1.8c0.6-0.5,1.2-0.8,2-1.1
		C7.7,120.4,8.6,120.3,9.5,120.3z M10.9,123.7c-0.1-0.1-0.3-0.1-0.5-0.2c-0.2-0.1-0.5-0.1-0.8-0.1c-0.8,0-1.4,0.2-1.8,0.7
		s-0.6,1.1-0.6,1.9c0,0.9,0.2,1.6,0.6,2s0.9,0.6,1.5,0.6c0.7,0,1.2-0.2,1.6-0.5V123.7z"/>
	<path class="st2" d="M23.5,132.7c-0.9,0-1.8-0.1-2.6-0.4c-0.8-0.3-1.5-0.7-2.1-1.2c-0.6-0.5-1.1-1.2-1.4-2
		c-0.3-0.8-0.5-1.7-0.5-2.8c0-1.1,0.2-2,0.5-2.7s0.8-1.4,1.4-1.9c0.6-0.5,1.2-0.8,1.9-1.1c0.7-0.2,1.5-0.3,2.2-0.3
		c0.8,0,1.6,0.1,2.3,0.4c0.7,0.3,1.3,0.6,1.8,1.1s0.9,1,1.2,1.6c0.3,0.6,0.4,1.3,0.4,2c0,0.5-0.2,1-0.5,1.2
		c-0.3,0.3-0.7,0.5-1.3,0.6l-5.9,0.9c0.2,0.5,0.5,0.9,1.1,1.2c0.5,0.3,1.2,0.4,1.9,0.4c0.7,0,1.3-0.1,1.9-0.3s1.1-0.4,1.4-0.6
		c0.3,0.2,0.5,0.4,0.6,0.7c0.2,0.3,0.3,0.6,0.3,0.9c0,0.7-0.3,1.3-1,1.6c-0.5,0.3-1.1,0.5-1.7,0.6C24.7,132.6,24.1,132.7,23.5,132.7
		z M22.9,123.2c-0.4,0-0.7,0.1-1,0.2c-0.3,0.1-0.5,0.3-0.7,0.5c-0.2,0.2-0.3,0.4-0.4,0.7c-0.1,0.2-0.1,0.5-0.2,0.8l4.1-0.7
		c0-0.3-0.2-0.6-0.5-1C23.9,123.4,23.5,123.2,22.9,123.2z"/>
	<path class="st2" d="M35.1,132.2c-0.2,0-0.5,0.1-0.8,0.1s-0.7,0.1-1.1,0.1s-0.7,0-1-0.1c-0.3-0.1-0.5-0.2-0.7-0.3
		c-0.2-0.1-0.3-0.3-0.4-0.6c-0.1-0.3-0.1-0.6-0.1-1v-12.7c0.2,0,0.5-0.1,0.8-0.1c0.4-0.1,0.8-0.1,1.1-0.1c0.4,0,0.7,0,1,0.1
		s0.5,0.2,0.7,0.3c0.2,0.1,0.3,0.3,0.4,0.6c0.1,0.3,0.1,0.6,0.1,1V132.2z"/>
	<path class="st2" d="M45.3,124.9c0-0.5-0.1-0.9-0.4-1.1c-0.3-0.2-0.7-0.3-1.1-0.3c-0.3,0-0.6,0-0.9,0.1c-0.3,0.1-0.6,0.2-0.8,0.4
		v8.3c-0.2,0-0.4,0.1-0.8,0.1c-0.3,0-0.7,0.1-1.1,0.1c-0.4,0-0.7,0-0.9-0.1c-0.3,0-0.5-0.1-0.7-0.3c-0.2-0.1-0.3-0.3-0.4-0.6
		c-0.1-0.2-0.2-0.6-0.2-1v-7.2c0-0.4,0.1-0.8,0.3-1.1c0.2-0.3,0.4-0.5,0.8-0.7c0.5-0.4,1.2-0.7,2.1-0.9s1.7-0.4,2.7-0.4
		c1.8,0,3.2,0.4,4.2,1.2c1,0.8,1.5,1.9,1.5,3.3v7.5c-0.2,0-0.4,0.1-0.8,0.1c-0.3,0-0.7,0.1-1.1,0.1c-0.4,0-0.7,0-0.9-0.1
		c-0.3,0-0.5-0.1-0.7-0.3s-0.3-0.3-0.4-0.6c-0.1-0.2-0.2-0.6-0.2-1V124.9z"/>
</g>
<g class="st1">
	<path class="st3" d="M66,132.9c-0.3,0-0.6,0-1,0c-0.4,0-0.7,0-1.1-0.1c-0.4,0-0.8-0.1-1.2-0.2s-0.7-0.2-1.1-0.3
		c-0.9-0.3-1.3-0.9-1.3-1.8v-11.2c0-0.3,0.1-0.6,0.3-0.8c0.2-0.2,0.4-0.3,0.8-0.4c0.5-0.2,1.2-0.3,2-0.4c0.8-0.1,1.7-0.1,2.5-0.1
		c2,0,3.6,0.3,4.7,1c1.1,0.7,1.7,1.8,1.7,3.2c0,0.7-0.2,1.3-0.6,1.9c-0.4,0.5-1,0.9-1.7,1.1c0.8,0.2,1.5,0.6,2,1.2s0.8,1.3,0.8,2.2
		c0,1.6-0.6,2.8-1.8,3.5C69.9,132.6,68.2,132.9,66,132.9z M64.4,123.7h1.8c0.7,0,1.2-0.1,1.5-0.4c0.3-0.3,0.5-0.6,0.5-1.1
		c0-0.4-0.2-0.8-0.5-1c-0.4-0.3-0.9-0.4-1.6-0.4c-0.2,0-0.5,0-0.8,0c-0.3,0-0.6,0-0.7,0.1V123.7z M64.4,129.6
		c0.2,0.1,0.5,0.1,0.9,0.1c0.4,0,0.7,0,1,0c0.6,0,1.2-0.1,1.6-0.4c0.4-0.3,0.6-0.7,0.6-1.2c0-0.5-0.2-0.9-0.5-1.1
		c-0.4-0.2-0.9-0.3-1.6-0.3h-2V129.6z"/>
	<path class="st3" d="M75.2,120.2c0-0.7,0.2-1.2,0.6-1.6c0.4-0.4,0.9-0.6,1.6-0.6h7.9c0.1,0.2,0.2,0.4,0.3,0.7s0.1,0.6,0.1,0.9
		c0,0.6-0.1,1-0.4,1.3c-0.3,0.3-0.6,0.4-1,0.4h-5.1v2.2h5.4c0.1,0.2,0.2,0.4,0.3,0.7s0.1,0.6,0.1,0.9c0,0.6-0.1,1-0.4,1.3
		s-0.6,0.4-1,0.4h-4.4v2.5h6.2c0.1,0.2,0.2,0.4,0.3,0.7s0.1,0.6,0.1,0.9c0,0.6-0.1,1-0.4,1.3c-0.3,0.3-0.6,0.4-1,0.4h-7
		c-0.7,0-1.2-0.2-1.6-0.6c-0.4-0.4-0.6-0.9-0.6-1.6V120.2z"/>
</g>
</svg>
